<?xml version="1.0" encoding="utf-8"?>
<!-- Generator: Adobe Illustrator 19.0.0, SVG Export Plug-In . SVG Version: 6.00 Build 0)  -->
<svg version="1.1" id="Camada_1" xmlns="http://www.w3.org/2000/svg" xmlns:xlink="http://www.w3.org/1999/xlink" x="0px" y="0px"
	 viewBox="0 0 203.2 203" style="enable-background:new 0 0 203.2 203;" xml:space="preserve">
<style type="text/css">
	.st0{fill:#00BFA5;}
	.st1{fill:#78909C;}
	.st2{fill:#546E7A;}
	.st3{fill:#455A64;}
	.st4{fill:#37474F;}
</style>
<circle id="XMLID_8_" class="st0" cx="101.7" cy="101.4" r="32.3"/>
<circle id="XMLID_4_" class="st0" cx="184.4" cy="149.6" r="13.3"/>
<path id="XMLID_25_" class="st1" d="M200.9,123.7c-1.6,7.6-13.2,4.5-11.6-3.1c8.3-38.8-10.1-79-44.9-98
	C115.5,6.9,79.6,8.7,52.1,26.8c-26.6,17.5-41.9,48.9-39.9,80.6c2.1,32.8,22.6,62,52.3,75.8c22.5,10.4,48.2,10.4,70.6,1.4
	c0,0,0.1,0,0.1,0c0,0,0.1,0,0.2-0.1c3-1.2,6.4,0.3,7.6,3.3c1.3,3-0.2,6.5-3.2,7.8c0,0,0,0,0,0c-29.3,11.7-63.1,9.9-91-7.2
	c-31.7-19.4-51-55.8-48.6-93c2.3-36.4,24.6-70,57.7-85.6c33.3-15.7,73.7-12.4,103.5,9.5C194,43.2,209.3,84.1,200.9,123.7z"/>
<path id="XMLID_23_" class="st2" d="M200.9,123.7c-1.6,7.6-13.2,4.5-11.6-3.1c8.3-38.8-10.1-79-44.9-98
	C115.5,6.9,79.6,8.7,52.1,26.8c-26.6,17.5-41.9,48.9-39.9,80.6c0.6,9.7,2.8,19,6.4,27.8c0,0,0,0.1,0.1,0.1c0,0,0,0.1,0,0.1
	c1.2,3-0.3,6.4-3.3,7.7c-3,1.2-6.4-0.2-7.7-3.1c0,0,0-0.1-0.1-0.1c0,0,0-0.1,0-0.1c-5.7-13.9-8.4-29-7.4-44.3
	c2.3-36.4,24.6-70,57.7-85.6c33.3-15.7,73.7-12.4,103.5,9.5C194,43.2,209.3,84.1,200.9,123.7z"/>
<path id="XMLID_30_" class="st3" d="M200.9,123.7c-1.6,7.6-13.2,4.5-11.6-3.1c8.3-38.8-10.1-79-44.9-98c-24-13.1-52.8-14-77.6-3.7
	c0,0-0.1,0-0.1,0c0,0,0,0,0,0c-3.1,1.3-6.6-0.2-7.8-3.3c-1.2-2.9,0.1-6.3,2.8-7.7c0,0,0,0,0,0c0.2-0.1,0.4-0.2,0.6-0.3
	c32.4-13.4,70.6-9.5,99.1,11.5C194,43.2,209.3,84.1,200.9,123.7z"/>
<path id="XMLID_29_" class="st4" d="M200.9,123.7c-1.6,7.6-13.2,4.5-11.6-3.1c3.9-18.4,1.8-37.1-5.1-53.7c0-0.1-0.1-0.1-0.1-0.2
	c0,0,0,0,0,0c-1.2-3,0.2-6.5,3.3-7.8c2.9-1.2,6.2,0,7.6,2.8c0.1,0.1,0.1,0.3,0.2,0.4c0,0,0,0.1,0,0.1
	C203.2,81.2,205.4,102.7,200.9,123.7z"/>
<path id="XMLID_1_" class="st0" d="M197.2,11.9h-13.1c-3.3,0-6-2.7-6-6v0c0-3.3,2.7-6,6-6l13.1,0c3.3,0,6,2.7,6,6v0
	C203.2,9.3,200.5,11.9,197.2,11.9z"/>
</svg>
